# AST/ASF file generated using VICON BodyLanguage
# -----------------------------------------------
:version 1.10
:name VICON
:units
  mass 1.0
  length 0.45
  angle deg
:documentation
   .ast/.asf automatically generated from VICON data using
   VICON BodyBuilder and BodyLanguage model FoxedUp or BRILLIANT.MOD
:root
   order TX TY TZ RX RY RZ
   axis XYZ
   position 0 0 0  
   orientation 0 0 0 
:bonedata
  begin
     id 1 
     name lhipjoint
     direction 0.710188 -0.616876 0.339259 
     length 2.5669 
     axis 0 0 0  XYZ
  end
  begin
     id 2 
     name lfemur
     direction 0.34202 -0.939693 0  
     length 7.12796  
     axis 0 0 20  XYZ
    dof rx ry rz
    limits (-160.0 20.0)
           (-70.0 70.0)
           (-60.0 70.0)
  end
  begin
     id 3 
     name ltibia
     direction 0.34202 -0.939693 0   
     length 7.58108   
     axis 0 0 20   XYZ
    dof rx
    limits (-10.0 170.0)
  end
  begin
     id 4 
     name lfoot
     direction 0.0669471 -0.183936 0.980656   
     length 2.17365   
     axis -90 7.62852e-016 20   XYZ
    dof rx rz
    limits (-45.0 90.0)
           (-70.0 20.0)
  end
  begin
     id 5 
     name ltoes
     direction 1.53508e-011 -4.21705e-011 1   
     length 1.09427   
     axis -90 7.62852e-016 20   XYZ
    dof rx
    limits (-90.0 20.0)
  end
  begin
     id 6 
     name rhipjoint
     direction -0.700191 -0.625589 0.34405   
     length 2.53115  
     axis 0 0 0  XYZ 
  end
  begin
     id 7 
     name rfemur
     direction -0.34202 -0.939693 0   
     length 7.33006   
     axis 0 0 -20   XYZ
    dof rx ry rz
    limits (-160.0 20.0)
           (-70.0 70.0)
           (-70.0 60.0)
  end
  begin
     id 8 
     name rtibia
     direction -0.34202 -0.939693 0   
     length 7.64926   
     axis 0 0 -20   XYZ
    dof rx
    limits (-10.0 170.0)
 end
 begin
     id 9 
     name rfoot
     direction -0.0688927 -0.189281 0.979503   
     length 2.20493  
     axis -90 -7.62852e-016 -20   XYZ
    dof rx rz
    limits (-45.0 90.0)
           (-20.0 70.0)
  end
  begin
     id 10 
     name rtoes
     direction -1.53567e-011 -4.21933e-011 1   
     length 1.10919   
     axis -90 -7.62852e-016 -20   XYZ
    dof rx
    limits (-90.0 20.0)
  end
  begin
     id 11 
     name lowerback
     direction -0.0167868 0.989873 -0.140959   
     length 2.14596   
     axis 0 0 0   XYZ
    dof rx ry rz
    limits (-20.0 45.0)
           (-30.0 30.0)
           (-30.0 30.0)
  end
  begin
     id 12 
     name upperback
     direction 0.0129109 0.998033 0.0613525   
     length 2.10457   
     axis 0 0 0   XYZ
    dof rx ry rz
    limits (-20.0 45.0)
           (-30.0 30.0)
           (-30.0 30.0)
  end
  begin
     id 13 
     name thorax
     direction 0.0177047 0.991119 0.131797   
     length 2.17652   
     axis 0 0 0   XYZ
    dof rx ry rz
    limits (-20.0 45.0)
           (-30.0 30.0)
           (-30.0 30.0)
  end
  begin
     id 14 
     name lowerneck
     direction -0.0336893 0.997548 0.0613464   
     length 1.8912   
     axis 0 0 0   XYZ
    dof rx ry rz
    limits (-20.0 45.0)
           (-30.0 30.0)
           (-30.0 30.0)
  end
  begin
     id 15 
     name upperneck
     direction 0.0435909 0.997179 -0.0611028   
     length 1.8829   
     axis 0 0 0   XYZ
    dof rx ry rz
    limits (-20.0 45.0)
           (-30.0 30.0)
           (-30.0 30.0)
  end
  begin
     id 16
     name head
     direction 0.0175076 0.999444 -0.0283782  
     length 1.93197  
     axis 0 0 0   XYZ
    dof rx ry rz
    limits (-20.0 45.0)
           (-30.0 30.0)
           (-30.0 30.0)
  end
  begin
     id 17 
     name lclavicle
     direction 0.919164 0.389875 0.0559876  
     length 3.60004  
     axis 0 0 0   XYZ
    dof ry rz
    limits (-20.0 10.0)
           (0.0 20.0)
  end
  begin
     id 18 
     name lhumerus
     direction 1 -4.48958e-011 6.89191e-027   
     length 5.43301   
     axis 180 -30 -90   XYZ
    dof rx ry rz
    limits (-60.0 90.0)
           (-90.0 90.0)
           (-90.0 90.0)
  end
  begin
     id 19
     name lradius
     direction 1 -4.4897e-011 3.24727e-027   
     length 3.15936   
     axis 180 -30 -90   XYZ
    dof rx
    limits (-10.0 170.0)
  end
  begin
     id 20
     name lwrist
     direction 1 -4.4897e-011 9.00228e-027   
     length 1.57968   
     axis -6.29373e-015 90 90   XYZ
    dof ry
    limits (-180.0 0.0)
 end
  begin
     id 21 
     name lhand
     direction 1 -4.48968e-011 1.80042e-026   
     length 0.712827   
     axis -1.14882e-014 90 90   XYZ
    dof rx rz
    limits (-90.0 90.0)
           (-45.0 45.0)
  end
  begin
     id 22 
     name lfingers
     direction 1 -4.49019e-011 3.60267e-026   
     length 0.574699   
     axis -2.29769e-014 90 90   XYZ
    dof rx
    limits (0.0 90.0)
  end
  begin
     id 23
     name lthumb
     direction 0.707107 -6.3498e-011 0.707107   
     length 0.825157   
     axis -90 45 5.37419e-014   XYZ
    dof rx rz
    limits (-45.0 45.0)
           (-45.0 45.0)
  end
  begin
     id 24 
     name rclavicle
     direction -0.890334 0.455305 -0.00132111   
     length 3.51494  
     axis 0 0 0   XYZ 
    dof ry rz
    limits (-10.0 20.0)
           (-20.0 0.0)
  end
  begin
     id 25 
     name rhumerus
     direction -1 -4.48967e-011 5.07175e-028  
     length 5.34194   
     axis 180 30 90   XYZ
    dof rx ry rz
    limits (-90.0 60.0)
           (-90.0 90.0)
           (-90.0 90.0)
  end
  begin
     id 26 
     name rradius
     direction -1 -4.48955e-011 3.30467e-027   
     length 3.19351   
     axis 180 30 90   XYZ
    dof rx
    limits (-10.0 170.0)
  end
  begin
     id 27 
     name rwrist
     direction -1 -4.48968e-011 9.00208e-027   
     length 1.59676   
     axis -6.29373e-015 -90 -90   XYZ
    dof ry
    limits (-180.0 0.0)
  end
  begin
     id 28
     name rhand
     direction -1 -4.49e-011 1.80099e-026   
     length 0.743862   
     axis -1.14882e-014 -90 -90   XYZ
    dof rx rz
    limits (-90.0 90.0)
           (-45.0 45.0)
  end
  begin
     id 29
     name rfingers
     direction -1 -4.49009e-011 3.6023e-026   
     length 0.599721   
     axis -2.29769e-014 -90 -90   XYZ
    dof rx
    limits (0.0 90.0)
  end
  begin
     id 30
     name rthumb
     direction -0.707107 -6.35025e-011 0.707107   
     length 0.861083   
     axis -90 -45 -5.37419e-014   XYZ
    dof rx rz
    limits (-45.0 45.0)
           (-45.0 45.0)
  end
:hierarchy
  begin
    root lhipjoint rhipjoint lowerback
    lhipjoint lfemur
    lfemur ltibia
    ltibia lfoot
    lfoot ltoes
    rhipjoint rfemur
    rfemur rtibia
    rtibia rfoot
    rfoot rtoes
    lowerback upperback
    upperback thorax
    thorax lowerneck lclavicle rclavicle
    lowerneck upperneck
    upperneck head
    lclavicle lhumerus
    lhumerus lradius
    lradius lwrist
    lwrist lhand lthumb
    lhand lfingers
    rclavicle rhumerus
    rhumerus rradius
    rradius rwrist
    rwrist rhand rthumb
    rhand rfingers
  end

#!OML:ASF H:\Martial Arts Walks\Project 1\Capture day 1\Session 1\male.ASF
:FULLY-SPECIFIED
:DEGREES
185
root -3.53309 13.5993 -22.6244 -128.893 71.5538 -137.882
lowerback 21.1904 -1.07427 -4.76079
upperback 0.725872 -1.62687 6.33336
thorax -10.7892 -0.224756 10.42
lowerneck 9.62997 -17.7424 -16.4339
upperneck -2.67065 -25.325 22.8391
head 2.78705 -13.1803 8.53389
rclavicle -5.04913e-014 3.02153e-014
rhumerus -33.322 2.60484 -58.3045
rradius 106.961
rwrist -5.52772
rhand -30.8392 -40.6404
rfingers 7.12502
rthumb -4.12784 -70.5802
lclavicle -5.04913e-014 3.02153e-014
lhumerus -46.6314 -22.661 95.8594
lradius 103.16
lwrist 28.5183
lhand -11.6687 10.2399
lfingers 7.12502
lthumb 14.3762 39.7221
rfemur -39.0923 -17.1597 4.84035
rtibia 66.9827
rfoot -22.7153 1.4049
rtoes -34.2449
lfemur -60.4161 22.9919 -3.35433
ltibia 91.4281
lfoot -36.1759 7.21025
ltoes -12.937
186
root -3.5344 13.5227 -22.5624 -128.839 71.9748 -138.042
lowerback 21.0148 -1.10943 -4.57798
upperback 0.606498 -1.63599 6.28634
thorax -10.8324 -0.237298 10.2526
lowerneck 9.75035 -17.7539 -16.2655
upperneck -3.0223 -25.2807 22.8276
head 2.63367 -13.1749 8.54728
rclavicle 1.51076e-014 4.01545e-014
rhumerus -33.1369 3.46272 -58.7789
rradius 107.827
rwrist -5.44329
rhand -30.9138 -41.0117
rfingers 7.12502
rthumb -4.1999 -70.9501
lclavicle 1.51076e-014 4.01545e-014
lhumerus -46.8339 -22.4144 96.169
lradius 103.811
lwrist 29.1164
lhand -11.2033 10.6603
lfingers 7.12502
lthumb 14.8246 40.11
rfemur -39.8495 -17.5654 4.88841
rtibia 67.7181
rfoot -24.0966 0.684897
rtoes -33.3934
lfemur -60.9955 23.3911 -3.51885
ltibia 92.1186
lfoot -36.3063 7.33513
ltoes -12.9379
187
root -3.53746 13.442 -22.5039 -128.586 72.3397 -137.932
lowerback 20.9424 -1.12974 -4.29366
upperback 0.499181 -1.59229 6.2901
thorax -10.9316 -0.223838 10.0758
lowerneck 9.78919 -17.7852 -16.5636
upperneck -3.03613 -25.3693 23.1168
head 2.72217 -13.2252 8.65295
rclavicle 4.77083e-014 -2.70347e-014
rhumerus -32.8146 4.12413 -58.9728
rradius 108.373
rwrist -5.3102
rhand -30.7324 -40.6891
rfingers 7.12502
rthumb -4.02475 -70.6308
lclavicle 4.77083e-014 -2.70347e-014
lhumerus -46.9453 -22.148 96.5461
lradius 104.422
lwrist 29.7784
lhand -11.4286 10.6211
lfingers 7.12502
lthumb 14.6075 40.0866
rfemur -40.5281 -18.0512 5.1025
rtibia 68.4419
rfoot -25.4077 -0.858417
rtoes -34.1178
lfemur -61.5388 23.8199 -3.55679
ltibia 92.8095
lfoot -36.4238 7.3804
ltoes -12.9551
188
root -3.54561 13.3659 -22.4508 -128.419 72.723 -138.041
lowerback 20.8528 -1.22541 -4.09252
upperback 0.339437 -1.67414 6.27313
thorax -11.0536 -0.265377 9.96387
lowerneck 9.65993 -17.8282 -16.3137
upperneck -3.03282 -25.37 22.778
head 2.66132 -13.2114 8.51427
rclavicle 7.7526e-015 2.10712e-014
rhumerus -32.3508 5.09014 -59.1681
rradius 108.902
rwrist -5.52814
rhand -30.8402 -40.7112
rfingers 7.12502
rthumb -4.12887 -70.651
lclavicle 7.7526e-015 2.10712e-014
lhumerus -47.1282 -21.9206 96.9086
lradius 104.916
lwrist 30.1824
lhand -11.202 10.4197
lfingers 7.12502
lthumb 14.8259 39.8693
rfemur -41.411 -18.7174 5.24763
rtibia 69.2486
rfoot -26.5231 -2.34922
rtoes -35.3206
lfemur -62.2369 24.187 -3.73909
ltibia 93.43
lfoot -36.4626 7.43649
ltoes -12.9971
189
root -3.55454 13.3131 -22.3975 -128.157 73.108 -137.932
lowerback 20.8398 -1.27192 -3.87631
upperback 0.241132 -1.68595 6.25473
thorax -11.1632 -0.27608 9.82236
lowerneck 9.74824 -17.8398 -16.3471
upperneck -3.2572 -25.3699 22.8748
head 2.60072 -13.224 8.56473
rclavicle -1.39149e-014 2.06736e-014
rhumerus -31.8959 5.85297 -59.3932
rradius 109.366
rwrist -5.61247
rhand -30.9127 -40.8005
rfingers 7.12502
rthumb -4.19882 -70.7388
lclavicle -1.39149e-014 2.06736e-014
lhumerus -47.1118 -21.693 97.195
lradius 105.41
lwrist 30.5797
lhand -10.9834 10.3153
lfingers 7.12502
lthumb 15.0365 39.7493
rfemur -42.138 -18.6834 5.04224
rtibia 70.1207
rfoot -27.2138 -2.38549
rtoes -36.0808
lfemur -62.6387 24.5402 -3.81213
ltibia 93.8988
lfoot -36.5445 7.38819
ltoes -13.0454
190
root -3.56307 13.259 -22.3441 -127.914 73.5299 -137.85
lowerback 20.8351 -1.31546 -3.72615
upperback 0.132138 -1.71391 6.21497
thorax -11.2854 -0.291528 9.70174
lowerneck 9.84765 -17.8306 -16.3722
upperneck -3.424 -25.3476 22.9239
head 2.54268 -13.2238 8.60321
rclavicle -3.44891e-014 2.82274e-014
rhumerus -31.4754 6.63763 -59.587
rradius 109.809
rwrist -5.61427
rhand -30.806 -40.9991
rfingers 7.12502
rthumb -4.09576 -70.9394
lclavicle -3.44891e-014 2.82274e-014
lhumerus -47.0355 -21.4433 97.4318
lradius 105.866
lwrist 30.8198
lhand -10.8656 10.2912
lfingers 7.12502
lthumb 15.15 39.7167
rfemur -43.092 -18.6072 4.77986
rtibia 71.0918
rfoot -27.6713 -1.87869
rtoes -36.263
lfemur -63.0221 24.8811 -3.9191
ltibia 94.3327
lfoot -36.5945 7.51751
ltoes -13.3369
191
root -3.57124 13.1991 -22.2904 -127.705 73.927 -137.732
lowerback 20.89 -1.33852 -3.5925
upperback 0.0987276 -1.70851 6.23123
thorax -11.3591 -0.290725 9.64598
lowerneck 9.61627 -18.0107 -16.3428
upperneck -3.34404 -25.5717 22.6832
head 2.6063 -13.3136 8.46675
rclavicle -4.55217e-014 2.8625e-014
rhumerus -30.9279 7.32022 -59.7149
rradius 110.105
rwrist -5.26552
rhand -30.7892 -41.4044
rfingers 7.12502
rthumb -4.07959 -71.3451
lclavicle -4.55217e-014 2.8625e-014
lhumerus -46.7219 -21.1994 97.6922
lradius 106.278
lwrist 30.8488
lhand -10.843 10.3308
lfingers 7.12502
lthumb 15.1717 39.7546
rfemur -44.0155 -18.769 4.6252
rtibia 72.1144
rfoot -28.0539 -1.90524
rtoes -37.0805
lfemur -63.3559 25.2052 -3.94893
ltibia 94.7835
lfoot -36.6283 7.54567
ltoes -13.5343
